<?xml version="1.0" encoding="UTF-8" standalone="no"?>
<!-- Created with Inkscape (http://www.inkscape.org/) -->

<svg
   xmlns:dc="http://purl.org/dc/elements/1.1/"
   xmlns:cc="http://creativecommons.org/ns#"
   xmlns:rdf="http://www.w3.org/1999/02/22-rdf-syntax-ns#"
   xmlns:svg="http://www.w3.org/2000/svg"
   xmlns="http://www.w3.org/2000/svg"
   xmlns:sodipodi="http://sodipodi.sourceforge.net/DTD/sodipodi-0.dtd"
   xmlns:inkscape="http://www.inkscape.org/namespaces/inkscape"
   width="8.0068245mm"
   height="7.7456083mm"
   viewBox="0 0 28.370638 27.445069"
   id="svg2"
   version="1.1"
   inkscape:version="0.91 r13725"
   sodipodi:docname="edit.svg">
  <defs
     id="defs4" />
  <sodipodi:namedview
     id="base"
     pagecolor="#ffffff"
     bordercolor="#666666"
     borderopacity="1.0"
     inkscape:pageopacity="0.0"
     inkscape:pageshadow="2"
     inkscape:zoom="11.2"
     inkscape:cx="-4.2518179"
     inkscape:cy="12.027707"
     inkscape:document-units="px"
     inkscape:current-layer="layer1"
     showgrid="false"
     fit-margin-top="0"
     fit-margin-left="0"
     fit-margin-right="0"
     fit-margin-bottom="0"
     inkscape:window-width="1920"
     inkscape:window-height="1017"
     inkscape:window-x="-8"
     inkscape:window-y="-8"
     inkscape:window-maximized="1" />
  <metadata
     id="metadata7">
    <rdf:RDF>
      <cc:Work
         rdf:about="">
        <dc:format>image/svg+xml</dc:format>
        <dc:type
           rdf:resource="http://purl.org/dc/dcmitype/StillImage" />
        <dc:title></dc:title>
      </cc:Work>
    </rdf:RDF>
  </metadata>
  <g
     inkscape:label="Calque 1"
     inkscape:groupmode="layer"
     id="layer1"
     transform="translate(-526.7522,-782.50596)">
    <path
       style="fill:#fbfcfc;fill-opacity:1;fill-rule:evenodd;stroke:none;stroke-width:1px;stroke-linecap:butt;stroke-linejoin:miter;stroke-opacity:1"
       d="m 537.14202,793.90627 c -2.51137,0.0237 -5.03479,0.0473 -7.56036,0 -0.19148,-0.004 -0.38262,-0.0914 -0.53664,-0.20519 -0.17182,-0.12697 -0.28809,-0.31986 -0.39459,-0.50507 -0.0847,-0.14737 -0.15171,-0.30775 -0.1894,-0.47351 -0.0351,-0.15425 -0.0557,-0.31717 -0.0316,-0.47351 0.0198,-0.12842 0.0883,-0.24471 0.14205,-0.36303 0.0613,-0.13499 0.10503,-0.28529 0.20519,-0.39459 0.0927,-0.10115 0.22961,-0.15036 0.34724,-0.22097 0.11918,-0.0715 0.22406,-0.20211 0.36302,-0.20519 1.42378,-0.0316 3.78807,-0.0631 3.78807,-0.0631 0,0 -4.17098,-4.24773 -6.29767,-6.40816 -0.0727,-0.0738 -0.0995,-0.18397 -0.12626,-0.2841 -0.0395,-0.14821 -0.0446,-0.30436 -0.0474,-0.45773 -0.003,-0.15816 -0.0199,-0.32392 0.0316,-0.4735 0.0579,-0.16834 0.18337,-0.30735 0.29989,-0.44195 0.10724,-0.12389 0.21547,-0.26019 0.36302,-0.33145 0.14877,-0.0718 0.32462,-0.0657 0.4893,-0.0789 0.19404,-0.0155 0.39284,-0.0368 0.58399,0 0.19475,0.0375 0.39085,0.10596 0.55243,0.22097 0.0851,0.0606 0.13105,0.1632 0.20519,0.23675 1.97723,1.96154 6.02934,5.93465 6.02934,5.93465 0,0 0.0249,-2.65186 0.0316,-3.91434 6.8e-4,-0.12736 0.15431,-0.20282 0.23676,-0.29989 0.10608,-0.12489 0.20427,-0.2597 0.33145,-0.36302 0.10435,-0.0848 0.21901,-0.16478 0.34724,-0.20519 0.13085,-0.0412 0.27345,-0.0402 0.41038,-0.0316 0.20905,0.0131 0.41847,0.0554 0.61556,0.12627 0.17939,0.0645 0.36372,0.1404 0.50507,0.26832 0.12659,0.11456 0.21122,0.27178 0.28411,0.42616 0.0775,0.16405 0.15783,0.33944 0.15784,0.52086 1.1e-4,2.27863 -0.003,4.62584 0.0158,7.05529 0.002,0.22296 -0.12516,0.43001 -0.22097,0.63134 -0.069,0.14503 -0.13869,0.29708 -0.25254,0.41038 -0.10042,0.0999 -0.23769,0.15495 -0.36303,0.22097 -0.10209,0.0538 -0.2003,0.14094 -0.31568,0.14203 z"
       id="path4147"
       inkscape:connector-curvature="0"
       sodipodi:nodetypes="ssaaaaaaascsaaaaaaaascsaaaaaaassaaas" />
    <path
       style="fill:#fbfcfc;fill-opacity:1;fill-rule:evenodd;stroke:none;stroke-width:1px;stroke-linecap:butt;stroke-linejoin:miter;stroke-opacity:1"
       d="m 544.77944,793.94156 c 2.51137,0.0237 5.03479,0.0473 7.56036,0 0.19148,-0.004 0.38262,-0.0914 0.53664,-0.20519 0.17182,-0.12697 0.28809,-0.31986 0.39459,-0.50507 0.0847,-0.14737 0.15171,-0.30775 0.1894,-0.47351 0.0351,-0.15425 0.0557,-0.31717 0.0316,-0.47351 -0.0198,-0.12842 -0.0883,-0.24471 -0.14205,-0.36303 -0.0613,-0.13499 -0.10503,-0.28529 -0.20519,-0.39459 -0.0927,-0.10115 -0.22961,-0.15036 -0.34724,-0.22097 -0.11918,-0.0715 -0.22406,-0.20211 -0.36302,-0.20519 -1.42378,-0.0316 -3.78807,-0.0631 -3.78807,-0.0631 0,0 4.17098,-4.24773 6.29767,-6.40816 0.0727,-0.0738 0.0995,-0.18397 0.12626,-0.2841 0.0395,-0.14821 0.0446,-0.30436 0.0474,-0.45773 0.003,-0.15816 0.0199,-0.32392 -0.0316,-0.4735 -0.0579,-0.16834 -0.18337,-0.30735 -0.29989,-0.44195 -0.10724,-0.12389 -0.21547,-0.26019 -0.36302,-0.33145 -0.14877,-0.0718 -0.32462,-0.0657 -0.4893,-0.0789 -0.19404,-0.0155 -0.39284,-0.0368 -0.58399,0 -0.19475,0.0375 -0.39085,0.10596 -0.55243,0.22097 -0.0851,0.0606 -0.13105,0.1632 -0.20519,0.23675 -1.97723,1.96154 -6.02934,5.93465 -6.02934,5.93465 0,0 -0.0249,-2.65186 -0.0316,-3.91434 -6.8e-4,-0.12736 -0.15431,-0.20282 -0.23676,-0.29989 -0.10608,-0.12489 -0.20427,-0.2597 -0.33145,-0.36302 -0.10435,-0.0848 -0.21901,-0.16478 -0.34724,-0.20519 -0.13085,-0.0412 -0.27345,-0.0402 -0.41038,-0.0316 -0.20905,0.0131 -0.41847,0.0554 -0.61556,0.12627 -0.17939,0.0645 -0.36372,0.1404 -0.50507,0.26832 -0.12659,0.11456 -0.21122,0.27178 -0.28411,0.42616 -0.0775,0.16405 -0.15783,0.33944 -0.15784,0.52086 -1.1e-4,2.27863 0.003,4.62584 -0.0158,7.05529 -0.002,0.22296 0.12516,0.43001 0.22097,0.63134 0.069,0.14503 0.13869,0.29708 0.25254,0.41038 0.10042,0.0999 0.23769,0.15495 0.36303,0.22097 0.10209,0.0538 0.2003,0.14094 0.31568,0.14203 z"
       id="path4147-3"
       inkscape:connector-curvature="0"
       sodipodi:nodetypes="ssaaaaaaascsaaaaaaaascsaaaaaaassaaas" />
    <path
       style="fill:#fbfcfc;fill-opacity:1;fill-rule:evenodd;stroke:none;stroke-width:1px;stroke-linecap:butt;stroke-linejoin:miter;stroke-opacity:1"
       d="m 537.09559,798.55071 c -2.51137,-0.0237 -5.03479,-0.0473 -7.56036,0 -0.19148,0.004 -0.38262,0.0914 -0.53664,0.20519 -0.17182,0.12697 -0.28809,0.31986 -0.39459,0.50507 -0.0847,0.14737 -0.15171,0.30775 -0.1894,0.47351 -0.0351,0.15425 -0.0557,0.31717 -0.0316,0.47351 0.0198,0.12842 0.0883,0.24471 0.14205,0.36303 0.0613,0.13499 0.10503,0.28529 0.20519,0.39459 0.0927,0.10115 0.22961,0.15036 0.34724,0.22097 0.11918,0.0715 0.22406,0.20211 0.36302,0.20519 1.42378,0.0316 3.78807,0.0631 3.78807,0.0631 0,0 -4.17098,4.24773 -6.29767,6.40816 -0.0727,0.0738 -0.0995,0.18397 -0.12626,0.2841 -0.0395,0.14821 -0.0446,0.30436 -0.0474,0.45773 -0.003,0.15816 -0.0199,0.32392 0.0316,0.4735 0.0579,0.16834 0.18337,0.30735 0.29989,0.44195 0.10724,0.12389 0.21547,0.26019 0.36302,0.33145 0.14877,0.0718 0.32462,0.0657 0.4893,0.0789 0.19404,0.0155 0.39284,0.0368 0.58399,0 0.19475,-0.0375 0.39085,-0.10596 0.55243,-0.22097 0.0851,-0.0606 0.13105,-0.1632 0.20519,-0.23675 1.97723,-1.96154 6.02934,-5.93465 6.02934,-5.93465 0,0 0.0249,2.65186 0.0316,3.91434 6.8e-4,0.12736 0.15431,0.20282 0.23676,0.29989 0.10608,0.12489 0.20427,0.2597 0.33145,0.36302 0.10435,0.0848 0.21901,0.16478 0.34724,0.20519 0.13085,0.0412 0.27345,0.0402 0.41038,0.0316 0.20905,-0.0131 0.41847,-0.0554 0.61556,-0.12627 0.17939,-0.0645 0.36372,-0.1404 0.50507,-0.26832 0.12659,-0.11456 0.21122,-0.27178 0.28411,-0.42616 0.0775,-0.16405 0.15783,-0.33944 0.15784,-0.52086 1.1e-4,-2.27863 -0.003,-4.62584 0.0158,-7.05529 0.002,-0.22296 -0.12516,-0.43001 -0.22097,-0.63134 -0.069,-0.14503 -0.13869,-0.29708 -0.25254,-0.41038 -0.10042,-0.0999 -0.23769,-0.15495 -0.36303,-0.22097 -0.10209,-0.0538 -0.2003,-0.14094 -0.31568,-0.14203 z"
       id="path4147-0"
       inkscape:connector-curvature="0"
       sodipodi:nodetypes="ssaaaaaaascsaaaaaaaascsaaaaaaassaaas" />
    <path
       style="fill:#fbfcfc;fill-opacity:1;fill-rule:evenodd;stroke:none;stroke-width:1px;stroke-linecap:butt;stroke-linejoin:miter;stroke-opacity:1"
       d="m 544.69015,798.55071 c 2.51137,-0.0237 5.03479,-0.0473 7.56036,0 0.19148,0.004 0.38262,0.0914 0.53664,0.20519 0.17182,0.12697 0.28809,0.31986 0.39459,0.50507 0.0847,0.14737 0.15171,0.30775 0.1894,0.47351 0.0351,0.15425 0.0557,0.31717 0.0316,0.47351 -0.0198,0.12842 -0.0883,0.24471 -0.14205,0.36303 -0.0613,0.13499 -0.10503,0.28529 -0.20519,0.39459 -0.0927,0.10115 -0.22961,0.15036 -0.34724,0.22097 -0.11918,0.0715 -0.22406,0.20211 -0.36302,0.20519 -1.42378,0.0316 -3.78807,0.0631 -3.78807,0.0631 0,0 4.17098,4.24773 6.29767,6.40816 0.0727,0.0738 0.0995,0.18397 0.12626,0.2841 0.0395,0.14821 0.0446,0.30436 0.0474,0.45773 0.003,0.15816 0.0199,0.32392 -0.0316,0.4735 -0.0579,0.16834 -0.18337,0.30735 -0.29989,0.44195 -0.10724,0.12389 -0.21547,0.26019 -0.36302,0.33145 -0.14877,0.0718 -0.32462,0.0657 -0.4893,0.0789 -0.19404,0.0155 -0.39284,0.0368 -0.58399,0 -0.19475,-0.0375 -0.39085,-0.10596 -0.55243,-0.22097 -0.0851,-0.0606 -0.13105,-0.1632 -0.20519,-0.23675 -1.97723,-1.96154 -6.02934,-5.93465 -6.02934,-5.93465 0,0 -0.0249,2.65186 -0.0316,3.91434 -6.8e-4,0.12736 -0.15431,0.20282 -0.23676,0.29989 -0.10608,0.12489 -0.20427,0.2597 -0.33145,0.36302 -0.10435,0.0848 -0.21901,0.16478 -0.34724,0.20519 -0.13085,0.0412 -0.27345,0.0402 -0.41038,0.0316 -0.20905,-0.0131 -0.41847,-0.0554 -0.61556,-0.12627 -0.17939,-0.0645 -0.36372,-0.1404 -0.50507,-0.26832 -0.12659,-0.11456 -0.21122,-0.27178 -0.28411,-0.42616 -0.0775,-0.16405 -0.15783,-0.33944 -0.15784,-0.52086 -1.1e-4,-2.27863 0.003,-4.62584 -0.0158,-7.05529 -0.002,-0.22296 0.12516,-0.43001 0.22097,-0.63134 0.069,-0.14503 0.13869,-0.29708 0.25254,-0.41038 0.10042,-0.0999 0.23769,-0.15495 0.36303,-0.22097 0.10209,-0.0538 0.2003,-0.14094 0.31568,-0.14203 z"
       id="path4147-09"
       inkscape:connector-curvature="0"
       sodipodi:nodetypes="ssaaaaaaascsaaaaaaaascsaaaaaaassaaas" />
  </g>
</svg>
